@startuml
class ConversationPieceDrawer {
    + <<override>> GetPropertyHeight(property:SerializedProperty, label:GUIContent) : float
    + <<override>> OnGUI(position:Rect, property:SerializedProperty, label:GUIContent) : void
}
class ConversationOptionDrawer {
    + <<override>> GetPropertyHeight(property:SerializedProperty, label:GUIContent) : float
    + <<override>> OnGUI(position:Rect, property:SerializedProperty, label:GUIContent) : void
}
PropertyDrawer <|-- ConversationPieceDrawer
PropertyDrawer <|-- ConversationOptionDrawer
@enduml
